# xmcd
#
# Track frame offsets:
#	150
#	12395
#	23103
#	34144
#	47308
#	58289
#	70080
#	83024
#	93531
#	104938
#	114410
#	125044
#
# Disc length: 1822 seconds
# Revision: 0
# Processed by: cddbd v1.5.2PL0 Copyright (c) Steve Scherf et al.
# Submitted via: dBpowerAMP V12.0
#
DISCID=a2071c0c
DTITLE=Webb Pierce - Sands Of Gold [Decca] (L)
DYEAR=1964
DGENRE=Classic Country
TTITLE0=Please Help me, I'm Falling
TTITLE1=Sands Of Gold
TTITLE2=Blue Mood
TTITLE3=Don't Let Me Cross Over
TTITLE4=Roses Are Red (My Love)
TTITLE5=My Love For You
TTITLE6=Detroit City
TTITLE7=Those Wonderful Years
TTITLE8=Nobody's Darlin' But Mine
TTITLE9=If The Back Door Could Talk
TTITLE10=Trye Love Never Dies
TTITLE11=The Smile Of A Clown
EXTD=
EXTT0=
EXTT1=
EXTT2=
EXTT3=
EXTT4=
EXTT5=
EXTT6=
EXTT7=
EXTT8=
EXTT9=
EXTT10=
EXTT11=
PLAYORDER=
